<svg xmlns="http://www.w3.org/2000/svg" xmlns:svg="http://www.w3.org/2000/svg" id="svg5" width="299.838" height="219.508" version="1.1" viewBox="0 0 299.838 219.508" xml:space="preserve"><g id="layer2" transform="translate(-105.97584,-145.99138)"><g id="g5521" style="mix-blend-mode:normal;fill:#ae0fcd;fill-opacity:1;fill-rule:nonzero" transform="matrix(0.89178882,0,0,0.90067383,27.690682,25.402232)"><g id="g1063" style="fill:#fff;fill-opacity:1"><path id="path425" style="fill:#fff;fill-opacity:1;fill-rule:nonzero;stroke:none;stroke-width:1.00904;stroke-dasharray:none;stroke-opacity:1" d="m 114.51196,133.8877 c -14.31218,0 -26.285642,14.43601 -26.519772,27.89331 -0.467492,87.74192 0,178.4595 0,189.18969 0,13.98313 10.985962,26.63282 26.247942,26.63282 h 284.34996 c 12.78868,0 25.41515,-13.74575 25.41515,-25.30079 V 160.66529 c 0,-11.99559 -11.48468,-26.43384 -24.49157,-26.43385 -13.00689,0 -285.00171,-0.34374 -285.00171,-0.34374 z m 17.06091,28.06542 c 0,0 244.12528,0.78516 250.80508,0.78516 6.81136,0 13.64353,7.58256 13.64353,13.39016 v 157.93748 c 0,9.9624 -7.81551,16.23831 -13.99267,16.25049 l -37.47764,0.0739 c -5.97072,0.0118 -11.13902,-7.98551 -12.72513,-11.77744 -2.11386,-5.05361 -12.42228,-28.586 -13.56793,-31.2027 -0.66878,-1.52751 -3.25049,-3.14454 -6.60547,-3.14454 H 198.04486 c -3.00487,0 -5.48445,3.18106 -6.35546,5.22657 -1.2573,2.95268 -10.11312,23.7506 -13.03687,30.61304 -3.05622,7.17336 -4.89835,10.05883 -12.85767,10.05883 h -34.7331 c -8.33837,0 -15.35132,-7.95969 -15.33324,-16.84863 l 0.31512,-154.89206 c 0,-7.63982 6.20847,-16.47026 15.52923,-16.47026 z"/><circle style="fill:#fff;fill-opacity:1;fill-rule:nonzero;stroke:none;stroke-width:.961227;stroke-dasharray:none;stroke-opacity:1" id="path1753" cx="188.803" cy="239.398" r="36"/><circle style="fill:#fff;fill-opacity:1;fill-rule:nonzero;stroke:none;stroke-width:.961227;stroke-dasharray:none;stroke-opacity:1" id="circle1761" cx="323.197" cy="239.398" r="36"/></g></g></g></svg>