<svg xmlns="http://www.w3.org/2000/svg" xmlns:svg="http://www.w3.org/2000/svg" xmlns:xlink="http://www.w3.org/1999/xlink" id="svg152" width="24" height="24" fill="#000" version="1.1" viewBox="0 0 24 24"><defs id="defs156"><linearGradient id="linearGradient1113"><stop style="stop-color:#56106f;stop-opacity:1" id="stop1109" offset="0"/><stop style="stop-color:#110614;stop-opacity:1" id="stop1111" offset="1"/></linearGradient><radialGradient id="radialGradient1181" cx="1.603" cy="1.977" r="12" fx="1.603" fy="1.977" gradientTransform="matrix(2.6651833,0.04906064,-0.04275264,2.3225059,-2.5853188,-2.6927137)" gradientUnits="userSpaceOnUse" xlink:href="#linearGradient1113"/></defs><g id="layer1"><rect style="fill:url(#radialGradient1181);stroke-width:.961227;fill-opacity:1" id="rect465" width="24" height="24" x="0" y="0"/></g><g id="layer2" style="display:inline"><path id="path150" d="m 12,4.945572 v 8.269358 c -0.462457,-0.266502 -0.995459,-0.431105 -1.567651,-0.431105 -1.7322537,0 -3.135301,1.403048 -3.135301,3.135302 0,1.732254 1.4030473,3.135301 3.135301,3.135301 1.732254,0 3.135302,-1.403047 3.135302,-3.135301 V 8.0808733 h 3.135301 V 4.945572 Z" style="display:inline;fill:#ecabf9;fill-opacity:.31235614;stroke-width:.783825"/><path id="path15415" d="m 12.000162,6.2567038 v 6.6993132 c -0.736533,-0.423114 -1.645446,-0.587659 -2.6092065,-0.250734 -1.049951,0.376102 -1.8570028,1.308521 -2.0450536,2.405484 -0.360431,2.146915 1.4573944,3.980411 3.5964731,3.643487 1.53575,-0.242899 2.624878,-1.653281 2.624878,-3.212537 V 7.8237947 h 1.567091 c 0.8619,0 1.56709,-0.705191 1.56709,-1.5670909 0,-0.8619 -0.70519,-1.5670909 -1.56709,-1.5670909 h -1.567091 c -0.8619,0 -1.567091,0.7051909 -1.567091,1.5670909 z" style="display:none;fill:#e694f8;fill-opacity:.218045;stroke-width:.783546"/></g></svg>